<?xml version="1.0" encoding="UTF-8"?>
<svg id="Camada_2" data-name="Camada 2" xmlns="http://www.w3.org/2000/svg" viewBox="0 0 460.7 98.03">
  <defs>
    <style>
      .cls-1 {
        fill: #17bc52;
      }

      .cls-2 {
        fill: #927a5d;
      }
    </style>
  </defs>
  <g id="Grupo_59" data-name="Grupo 59">
    <g>
      <g>
        <path class="cls-2" d="M89.41,47.35v-18.33c0-1.59.63-3.12,1.76-4.24,1.13-1.12,2.65-1.76,4.24-1.76s3.12.63,4.24,1.76c1.13,1.13,1.76,2.65,1.76,4.24v27.16c0,4.46-1.24,8.82-3.58,12.61-2.34,3.79-5.69,6.85-9.68,8.85l-10.73,5.36v12h-21.2v-26.11c0-2.45.91-4.81,2.55-6.63,1.64-1.82,3.9-2.96,6.34-3.2.02,0,9.17-1.41,13.57-5.81l4.49-4.49c.8-.8,1.81-1.36,2.92-1.61,1.1-.25,2.26-.18,3.33.19"/>
        <path class="cls-1" d="M64.8,3.02c10.96,0,14.77,10.09,14.77,16,0,12-9.86,18.81-27.36,33.99-17.5-15.18-27.36-22-27.36-33.99,0-5.91,3.82-16,14.77-16,6.72,0,10.45,4.91,12.59,8.82,2.14-3.91,5.86-8.82,12.59-8.82Z"/>
        <path class="cls-2" d="M15.02,47.35c1.07-.38,2.22-.44,3.33-.19s2.12.81,2.92,1.61l4.49,4.49c4.32,4.32,13.55,5.8,13.57,5.81,2.44.24,4.7,1.39,6.34,3.2,1.64,1.82,2.55,4.18,2.55,6.63v26.11h-21.2v-12l-10.73-5.37c-3.99-1.99-7.34-5.06-9.68-8.85s-3.58-8.16-3.58-12.61v-27.16c0-1.59.63-3.12,1.76-4.24,1.13-1.12,2.65-1.76,4.24-1.76s3.12.63,4.24,1.76c1.13,1.13,1.76,2.65,1.76,4.24v18.33Z"/>
        <g>
          <path d="M58.97,51.19l1.92-1.65c13.07-11.17,21.7-18.55,21.7-30.52,0-7.35-4.83-19.02-17.81-19.02-2.68.03-5.34.74-7.68,2.05-1.9,1.06-3.57,2.51-4.89,4.23-1.32-1.72-2.99-3.17-4.89-4.23-2.34-1.31-5-2.02-7.69-2.05-12.96,0-17.79,11.67-17.79,19.02,0,12,8.82,19.53,21.04,29.96l2.1,1.79c1.68,1.44,3.42,2.92,5.26,4.53.55.48,1.25.74,1.98.74s1.43-.26,1.98-.74c1.67-1.44,3.25-2.8,4.78-4.11ZM76.55,19.02c0,9.18-7.24,15.38-20.45,26.67-1.26,1.08-2.55,2.18-3.89,3.33-1.36-1.17-2.66-2.29-3.94-3.38-13.15-11.25-20.39-17.44-20.39-26.62,0-6.29,4.12-12.97,11.75-12.97,4.02,0,7.27,2.37,9.93,7.24.26.47.64.87,1.11,1.15.93.55,2.15.55,3.08,0,.47-.28.85-.67,1.11-1.15,2.66-4.87,5.91-7.24,9.93-7.24,7.63,0,11.75,6.68,11.75,12.97Z"/>
          <path d="M39.66,56.07l-.14-.02c-4.26-.6-8.29-2.32-11.67-4.97l-4.44-4.44c-.84-.85-1.83-1.51-2.93-1.96-.78-.32-1.6-.53-2.43-.63v-15.04c-.04-2.38-.99-4.62-2.69-6.29-1.7-1.67-3.95-2.59-6.33-2.59s-4.63.92-6.33,2.59S.04,26.62,0,29.02v27.16c0,5.02,1.4,9.93,4.04,14.2,2.43,3.92,5.8,7.15,9.82,9.39l-.02.02,10.16,5.08v10.13c0,.81.31,1.56.89,2.14.57.57,1.33.88,2.14.89h21.2c.81,0,1.57-.31,2.14-.88.57-.57.89-1.33.89-2.14v-26.1c0-3.21-1.17-6.28-3.32-8.66-2.15-2.38-5.09-3.86-8.26-4.17ZM29.59,81.42c-.3-.48-.72-.86-1.22-1.11l-10.73-5.37c-3.49-1.73-6.43-4.4-8.48-7.72-2.05-3.32-3.13-7.13-3.12-11.04v-27.16c0-.79.32-1.54.88-2.1,1.12-1.12,3.08-1.12,4.21,0,.56.56.87,1.31.87,2.1v16.5c-.98.66-1.83,1.5-2.48,2.48-.76,1.14-1.26,2.47-1.44,3.83-.18,1.36-.04,2.77.4,4.08.44,1.3,1.19,2.51,2.16,3.48l10.22,10.22c.28.3.61.53.98.69s.77.25,1.17.26c.41,0,.8-.07,1.18-.22.38-.15.71-.38,1-.66s.51-.62.66-1c.15-.38.23-.77.22-1.18,0-.41-.09-.8-.26-1.17-.16-.37-.4-.7-.67-.96l-10.25-10.24c-.35-.35-.62-.8-.75-1.28-.14-.48-.15-1-.04-1.48.11-.49.35-.95.68-1.32.33-.37.76-.66,1.23-.83.53-.19,1.1-.22,1.65-.1.55.12,1.05.4,1.45.8l4.49,4.49c4.65,4.65,14.24,6.47,15.25,6.65l.16.03c1.69.17,3.26.95,4.4,2.22,1.14,1.26,1.77,2.9,1.76,4.6v23.08h-15.13v-8.98c0-.56-.16-1.11-.45-1.59Z"/>
          <path d="M92.81,71.58h0c-.6,0-1.18.18-1.68.51-.5.33-.88.8-1.11,1.36-.23.55-.29,1.16-.17,1.75.12.59.4,1.13.83,1.55.42.42.96.71,1.55.83.2.04.4.06.59.06.39,0,.79-.08,1.16-.23.55-.23,1.02-.62,1.36-1.11.33-.5.51-1.08.51-1.68,0-.81-.31-1.57-.88-2.14-.57-.57-1.33-.89-2.14-.89Z"/>
          <path d="M101.78,22.64c-1.7-1.7-3.97-2.64-6.38-2.64h0c-2.41,0-4.67.94-6.38,2.65s-2.64,3.97-2.65,6.38v15.03c-.83.09-1.65.3-2.43.63-1.1.46-2.09,1.12-2.93,1.96l-4.45,4.45c-3.38,2.66-7.42,4.38-11.65,4.97h-.13c-3.19.32-6.14,1.81-8.29,4.19-2.15,2.38-3.33,5.46-3.32,8.66v26.11c0,.81.31,1.56.89,2.14.57.57,1.33.88,2.14.89h21.2c.81,0,1.56-.31,2.13-.88.57-.57.89-1.33.89-2.14v-10.13l6.01-2.99c.7-.37,1.21-1,1.45-1.75.24-.75.18-1.56-.18-2.27-.35-.71-.96-1.24-1.71-1.5-.75-.26-1.55-.22-2.3.13l-7.65,3.82c-.5.25-.92.64-1.22,1.12s-.45,1.03-.45,1.59v8.97h-15.15v-23.1c0-1.71.62-3.34,1.77-4.6,1.14-1.26,2.71-2.05,4.41-2.21l.17-.02c5.56-.76,10.8-3.04,15.23-6.66l4.49-4.49c.4-.4.89-.67,1.44-.8.55-.12,1.12-.09,1.65.1.47.17.9.45,1.23.83.33.37.57.83.68,1.32.11.49.1,1-.04,1.49-.14.48-.4.92-.76,1.28l-10.25,10.25c-.56.57-.86,1.33-.86,2.13s.32,1.55.89,2.12c.57.57,1.32.88,2.12.88.84-.02,1.56-.3,2.14-.87l10.24-10.24c.97-.97,1.72-2.18,2.16-3.48.44-1.3.58-2.71.4-4.08-.18-1.37-.68-2.69-1.44-3.84-.65-.98-1.5-1.83-2.48-2.48v-16.5c0-.78.32-1.55.87-2.1,1.12-1.12,3.08-1.12,4.21,0,.55.55.87,1.32.87,2.1v27.16c0,3.49-.88,6.95-2.54,10.01-.2.35-.32.73-.36,1.13-.04.4-.01.8.1,1.18.11.38.3.74.55,1.05.25.31.56.57.91.76.35.19.73.31,1.14.35.4.04.8,0,1.18-.11.39-.12.74-.3,1.05-.56.31-.25.56-.56.75-.91,2.15-3.95,3.28-8.41,3.29-12.9v-27.16c0-2.41-.94-4.67-2.65-6.38Z"/>
        </g>
      </g>
      <g>
        <path d="M179.88,43.87c2.2,2.41,3.31,5.67,3.31,9.78v18.17h-12.28v-16.62c0-1.33-.4-2.38-1.19-3.14-.8-.76-1.86-1.14-3.2-1.14s-2.45.38-3.22,1.14c-.78.76-1.17,1.81-1.17,3.14v16.62h-12.28v-16.62c0-1.33-.4-2.38-1.19-3.14-.8-.76-1.86-1.14-3.2-1.14s-2.44.38-3.22,1.14c-.78.76-1.17,1.81-1.17,3.14v16.62h-12.34v-31.34h12.34v4.22c.89-1.33,2.1-2.41,3.64-3.22,1.54-.81,3.34-1.22,5.42-1.22,2.26,0,4.26.49,6,1.47,1.74.98,3.13,2.36,4.17,4.14,1.15-1.63,2.61-2.97,4.39-4.03,1.78-1.06,3.74-1.58,5.89-1.58,4,0,7.1,1.2,9.31,3.61Z"/>
        <path d="M187.99,47.57c1.13-2.43,2.68-4.28,4.64-5.56s4.17-1.92,6.61-1.92c2.04,0,3.8.42,5.28,1.25,1.48.83,2.61,1.97,3.39,3.42v-4.28h12.28v31.34h-12.28v-4.28c-.78,1.44-1.91,2.58-3.39,3.42-1.48.83-3.24,1.25-5.28,1.25-2.45,0-4.65-.64-6.61-1.92s-3.51-3.13-4.64-5.56c-1.13-2.43-1.69-5.29-1.69-8.59s.56-6.16,1.69-8.59ZM206.64,52.27c-.85-.93-1.95-1.39-3.28-1.39s-2.43.46-3.28,1.39c-.85.93-1.28,2.22-1.28,3.89s.43,2.96,1.28,3.89c.85.93,1.94,1.39,3.28,1.39s2.43-.46,3.28-1.39c.85-.93,1.28-2.22,1.28-3.89s-.43-2.96-1.28-3.89Z"/>
        <path d="M225.56,47.62c1.35-2.43,3.24-4.29,5.67-5.58,2.43-1.3,5.2-1.94,8.31-1.94,4.07,0,7.51,1.15,10.31,3.45,2.8,2.3,4.57,5.48,5.31,9.56h-13.06c-.48-1.63-1.43-2.45-2.83-2.45-1,0-1.79.46-2.36,1.39-.57.93-.86,2.3-.86,4.11s.29,3.19.86,4.11c.57.93,1.36,1.39,2.36,1.39,1.41,0,2.35-.81,2.83-2.45h13.06c-.74,4.08-2.51,7.26-5.31,9.56-2.8,2.3-6.23,3.45-10.31,3.45-3.11,0-5.88-.65-8.31-1.95-2.43-1.3-4.32-3.16-5.67-5.58-1.35-2.43-2.03-5.27-2.03-8.53s.68-6.1,2.03-8.53Z"/>
        <path d="M291.66,40.48v31.34h-12.34v-4.78c-.96,1.48-2.25,2.69-3.86,3.61-1.61.93-3.53,1.39-5.75,1.39-3.59,0-6.4-1.2-8.42-3.61-2.02-2.41-3.03-5.67-3.03-9.78v-18.17h12.28v16.62c0,1.48.4,2.66,1.19,3.53.8.87,1.86,1.31,3.2,1.31s2.45-.43,3.22-1.31c.78-.87,1.17-2.05,1.17-3.53v-16.62h12.34Z"/>
        <path d="M347.81,43.87c2.2,2.41,3.31,5.67,3.31,9.78v18.17h-12.28v-16.62c0-1.33-.4-2.38-1.19-3.14-.8-.76-1.86-1.14-3.2-1.14s-2.45.38-3.22,1.14c-.78.76-1.17,1.81-1.17,3.14v16.62h-12.28v-16.62c0-1.33-.4-2.38-1.19-3.14-.8-.76-1.86-1.14-3.2-1.14s-2.44.38-3.22,1.14c-.78.76-1.17,1.81-1.17,3.14v16.62h-12.34v-31.34h12.34v4.22c.89-1.33,2.1-2.41,3.64-3.22,1.54-.81,3.34-1.22,5.42-1.22,2.26,0,4.26.49,6,1.47,1.74.98,3.13,2.36,4.17,4.14,1.15-1.63,2.61-2.97,4.39-4.03,1.78-1.06,3.74-1.58,5.89-1.58,4,0,7.1,1.2,9.31,3.61Z"/>
        <path d="M371.59,41.35c1.46-.83,3.21-1.25,5.25-1.25,2.45,0,4.65.64,6.61,1.92,1.96,1.28,3.51,3.13,4.64,5.56,1.13,2.43,1.7,5.29,1.7,8.59s-.57,6.16-1.7,8.59c-1.13,2.43-2.68,4.28-4.64,5.56-1.96,1.28-4.17,1.92-6.61,1.92-2.04,0-3.79-.42-5.25-1.25-1.46-.83-2.58-1.97-3.36-3.42v4.28h-12.34V30.7h12.34v14.06c.78-1.44,1.9-2.58,3.36-3.42ZM376.01,52.27c-.85-.93-1.95-1.39-3.28-1.39s-2.43.46-3.28,1.39c-.85.93-1.28,2.22-1.28,3.89s.43,2.96,1.28,3.89c.85.93,1.94,1.39,3.28,1.39s2.43-.46,3.28-1.39c.85-.93,1.28-2.22,1.28-3.89s-.43-2.96-1.28-3.89Z"/>
        <path d="M393.15,47.57c1.13-2.43,2.68-4.28,4.64-5.56s4.17-1.92,6.61-1.92c2.04,0,3.8.42,5.28,1.25,1.48.83,2.61,1.97,3.39,3.42v-4.28h12.28v31.34h-12.28v-4.28c-.78,1.44-1.91,2.58-3.39,3.42-1.48.83-3.24,1.25-5.28,1.25-2.45,0-4.65-.64-6.61-1.92s-3.51-3.13-4.64-5.56c-1.13-2.43-1.69-5.29-1.69-8.59s.56-6.16,1.69-8.59ZM411.8,52.27c-.85-.93-1.95-1.39-3.28-1.39s-2.43.46-3.28,1.39c-.85.93-1.28,2.22-1.28,3.89s.43,2.96,1.28,3.89c.85.93,1.94,1.39,3.28,1.39s2.43-.46,3.28-1.39c.85-.93,1.28-2.22,1.28-3.89s-.43-2.96-1.28-3.89Z"/>
        <path d="M460.53,58.32h-19.84c.18,2.71,1.31,4.06,3.39,4.06,1.33,0,2.3-.61,2.89-1.83h13.06c-.44,2.22-1.38,4.21-2.81,5.97-1.43,1.76-3.22,3.15-5.39,4.17-2.17,1.02-4.55,1.53-7.14,1.53-3.11,0-5.88-.65-8.31-1.95-2.43-1.3-4.32-3.16-5.67-5.58-1.35-2.43-2.03-5.27-2.03-8.53s.68-6.1,2.03-8.53c1.35-2.43,3.24-4.29,5.67-5.58,2.43-1.3,5.2-1.94,8.31-1.94s5.88.64,8.31,1.92c2.43,1.28,4.32,3.1,5.67,5.47,1.35,2.37,2.03,5.17,2.03,8.39,0,.85-.06,1.67-.17,2.44ZM444.69,33.65l-9.22,4.33v-8l9.22-4.17,9.17,4.17v8l-9.17-4.33ZM448.2,52.93c0-1.04-.33-1.82-1-2.36-.67-.54-1.5-.81-2.5-.81-2.19,0-3.46,1.06-3.83,3.17h7.34Z"/>
      </g>
    </g>
  </g>
</svg>